# xmcd
#
# Track frame offsets: 
#        150
#        15010
#        29837
#        44277
#        57577
#        72390
#        86032
#        99437
#        113417
#        126122
#        139437
#        151652
#        165020
#        176970
#        188785
#        200737
#        215402
#
# Disc length: 3112 seconds
#
# Revision: 2
# Processed by: cddbd v1.5.2PL0 Copyright (c) Steve Scherf et al.
# Submitted via: ExactAudioCopy v1.1
#
DISCID=e90c2611
DTITLE=Ella Fitzgerald - The Magic of Ella Fitzgerald Disc 1
DYEAR=1998
DGENRE=Jazz
TTITLE0=Someone To Watch Over Me
TTITLE1=How Long Has This Been Going On ?
TTITLE2=People Will Say We're In Love
TTITLE3=Angel Eyes
TTITLE4=I've Got A Crush On You
TTITLE5=My Man (Mon Homme)
TTITLE6=I Got It Bad (And That Ain't Good)
TTITLE7=The One I Love (Belongs To Somebody Else)
TTITLE8=Can't Help Lovin' Dat Man
TTITLE9=I'm Just A Lucky So-And-So
TTITLE10=It Might As Well Be Spring
TTITLE11=I'm Gonna Wash That Man Right Out Of My Hair
TTITLE12=Nice Work If You Can Get It
TTITLE13=Imagination
TTITLE14=My Heart Belongs To Daddy
TTITLE15=But Not For Me
TTITLE16=Stardust
EXTD=
EXTT0=
EXTT1=
EXTT2=
EXTT3=
EXTT4=
EXTT5=
EXTT6=
EXTT7=
EXTT8=
EXTT9=
EXTT10=
EXTT11=
EXTT12=
EXTT13=
EXTT14=
EXTT15=
EXTT16=
PLAYORDER=
